<?xml version="1.0" encoding="utf-8"?>
<!-- Generator: Adobe Illustrator 24.3.0, SVG Export Plug-In . SVG Version: 6.00 Build 0)  -->
<svg version="1.1" id="Layer_1" xmlns="http://www.w3.org/2000/svg" xmlns:xlink="http://www.w3.org/1999/xlink" x="0px" y="0px"
	 viewBox="0 0 179 179" style="enable-background:new 0 0 179 179;" xml:space="preserve">
<g>
	<g>
		<path d="M141.5,40.7c0.9-0.9,0.9-2.4,0-3.4c-13.9-13.9-32.4-21.6-52.1-21.6c-39.8,0-72.3,31.8-73.5,71.3L4,75.2
			c-0.5-0.5-1.1-0.7-1.7-0.7c-0.6,0-1.2,0.2-1.7,0.7c-0.9,0.9-0.9,2.4,0,3.4l18.6,18.6l18.6-18.6c0.9-0.9,0.9-2.4,0-3.4
			c-0.9-0.9-2.4-0.9-3.4,0l-14,14.1c0-37.9,30.9-68.8,68.9-68.8c18.4,0,35.7,7.2,48.7,20.2C139.1,41.6,140.6,41.6,141.5,40.7z"/>
		<path d="M178.3,100.4l-18.6-18.6l-18.6,18.6c-0.9,0.9-0.9,2.4,0,3.4c0.9,0.9,2.4,0.9,3.4,0l14.1-14.1c0,37.9-30.9,68.8-68.9,68.8
			c-18.4,0-35.7-7.2-48.7-20.2c-0.9-0.9-2.4-0.9-3.4,0c-0.9,0.9-0.9,2.4,0,3.4c13.9,13.9,32.4,21.6,52.1,21.6
			c39.8,0,72.3-31.8,73.5-71.3l11.8,11.8c0.9,0.9,2.4,0.9,3.4,0C179.3,102.9,179.3,101.4,178.3,100.4z"/>
	</g>
</g>
</svg>
