<svg xmlns="http://www.w3.org/2000/svg" viewBox="0 0 220 141"><rect x="138" width="82" height="141" rx="15"/><circle cx="179" cy="130.5" r="6" fill="none" stroke="#212120"/><rect x="142" y="5" width="74" height="115" rx="12" fill="#212120"/><path d="M185.31,86.59a24.58,24.58,0,0,1-27.67-36l1.83,6.85a.85.85,0,0,0,1.64-.43l-2.43-9.09-9.08,2.44a.84.84,0,0,0-.6,1h0a.84.84,0,0,0,1,.6h0l5.77-1.55a26.26,26.26,0,0,0,29.93,37.8.85.85,0,0,0,.6-1h0a.83.83,0,0,0-1-.6Z" transform="translate(0 0)" fill="#fff"/><path d="M209,74.25a.84.84,0,0,0-1-.6h0l-5.8,1.55a26.27,26.27,0,0,0-29.95-37.8.85.85,0,0,0,.44,1.64h0a24.59,24.59,0,0,1,27.67,36l-1.83-6.86a.85.85,0,0,0-1.66.36.24.24,0,0,0,0,.08l2.43,9.08,9.08-2.44A.84.84,0,0,0,209,74.25Z" transform="translate(0 0)" fill="#fff"/><rect width="82" height="141" rx="15"/><circle cx="41" cy="130.5" r="6" fill="none" stroke="#212120"/><rect x="4" y="5" width="74" height="115" rx="12" fill="#212120"/><path d="M34.69,86.59a24.58,24.58,0,0,0,27.67-36l-1.83,6.85A.85.85,0,0,1,58.89,57l2.43-9.09,9.08,2.44a.84.84,0,0,1,.6,1h0a.84.84,0,0,1-1,.6h0L64.23,50.4A26.26,26.26,0,0,1,34.3,88.2a.85.85,0,0,1-.6-1h0a.83.83,0,0,1,1-.6Z" transform="translate(0 0)" fill="#fff"/><path d="M11,74.25a.84.84,0,0,1,1-.6h0l5.8,1.55a26.27,26.27,0,0,1,30-37.8.85.85,0,0,1-.49,1.6h0A24.59,24.59,0,0,0,19.64,75l1.83-6.86a.85.85,0,0,1,1.64.44l-2.43,9.08L11.6,75.29a.83.83,0,0,1-.6-1Z" transform="translate(0 0)" fill="#fff"/><path d="M69.28,109.8h0a2.37,2.37,0,0,0-1.38,1,2.45,2.45,0,0,0-2.64-1,2.39,2.39,0,0,0-1.46,1.14,2.44,2.44,0,0,0-2.46-.78h0A2.16,2.16,0,0,0,60,111l-1.53-5.7a2.46,2.46,0,1,0-4.8,1.1l0,.17,3,11.32-.85-.6a3.31,3.31,0,0,0-2.6-.59,3.26,3.26,0,0,0-2.15,1.48l-.44.61a.54.54,0,0,0,0,.64l8.21,9a5.78,5.78,0,0,0,5.75,1.77l6.1-1.64h0a6,6,0,0,0,4-7.48h0l-.93-3.46c-.64-2.39-.88-3.27-1.59-5.89A2.51,2.51,0,0,0,69.28,109.8Zm3.62,8,.93,3.47a5,5,0,0,1-3.29,6.24l-6.08,1.63a4.74,4.74,0,0,1-4.72-1.48L51.81,119l.2-.28h0a2.24,2.24,0,0,1,1.49-1,2.29,2.29,0,0,1,1.81.42l2,1.44a.51.51,0,0,0,.71-.12.5.5,0,0,0,.08-.43l-3.39-12.7a1.44,1.44,0,0,1,2.7-1,2,2,0,0,1,.07.26l2.05,7.65v.08h0l.88,3.28A.52.52,0,0,0,61,117a.52.52,0,0,0,.38-.62h0l-.9-3.37a1.44,1.44,0,0,1,1-1.78h0a1.5,1.5,0,0,1,1.79,1.12l.8,3a.51.51,0,0,0,.61.39h0a.51.51,0,0,0,.4-.59v0h0l-.63-2.35a1.42,1.42,0,1,1,2.58-1.19,1.07,1.07,0,0,1,.07.19,1.29,1.29,0,0,1,.08.28l.59,2.21a.51.51,0,0,0,1-.22h0l-.32-1.2a1.49,1.49,0,0,1,1-1.86h0a1.48,1.48,0,0,1,1.77,1.12h0c.71,2.63,1,3.51,1.58,5.89Z" transform="translate(0 0)" fill="#fff"/><path d="M52.24,107.18a.52.52,0,0,0,.36-.63h0a3.55,3.55,0,1,1,6.86-1.84h0a.51.51,0,0,0,1-.22h0a4.58,4.58,0,1,0-8.94,2c0,.13.06.25.1.37a.51.51,0,0,0,.62.36Z" transform="translate(0 0)" fill="#fff"/><line x1="87.5" y1="66.5" x2="132.5" y2="66.5" fill="none" stroke="#9d9d9d"/><line x1="126.5" y1="60.5" x2="132.5" y2="66.5" fill="none" stroke="#9d9d9d" stroke-linecap="round"/><line x1="126.5" y1="72.5" x2="132.5" y2="66.5" fill="none" stroke="#9d9d9d" stroke-linecap="round"/></svg>